<?xml version="1.0" encoding="utf-8"?>
<!-- Generator: Adobe Illustrator 23.0.2, SVG Export Plug-In . SVG Version: 6.00 Build 0)  -->
<svg version="1.1" id="chemex" xmlns="http://www.w3.org/2000/svg" xmlns:xlink="http://www.w3.org/1999/xlink" x="0px" y="0px"
	 viewBox="0 0 1024 768" enable-background="new 0 0 1024 768" xml:space="preserve">
<path d="M665.06,509.11c-0.04-0.07-0.08-0.15-0.12-0.23l-54.46-117.68c-0.86-1.86-2.88-2.89-4.89-2.49
	c-4.87,0.98-14.89,2.8-29.39,4.55c-2.43,0.29-4.65-1.43-4.94-3.86l-1.66-13.61c-0.31-4.04-0.83-8.76-1.69-13.8l0-0.01l0,0
	c-1.15-6.77-2.92-14.13-5.63-21.24c-0.19-0.49-0.34-0.99-0.44-1.51c-0.53-2.68-2.29-11.8-3.37-21c1.92-0.28,3.76-0.59,5.51-0.91
	c0.56,7.74,2.41,12.85,4.02,17.7c5.61,16.82,7.28,36.09,7.79,46.12c0.19,3.71,3.47,6.48,7.15,6.02l23.72-2.97
	c0.95-0.12,1.87-0.45,2.68-0.97c12.85-8.23,7.03-20.65,5.85-22.86c-0.1-0.2-0.21-0.38-0.34-0.56c-8.19-11.98-21.17-43.24-23.49-48.9
	c-0.24-0.58-0.4-1.2-0.46-1.83c-3.28-34.12,16.21-61.24,18.81-64.69c0.2-0.26,0.38-0.54,0.53-0.83c3.81-7.06,5.53-12.02,6.11-15.5
	c0.72-4.26-2.98-7.95-7.25-7.3l-23.3,3.53c-2.77,0.42-4.95,2.6-5.35,5.37c-0.91,6.32-3.29,19.42-9.46,41.35
	c-0.53,1.87-1.01,3.67-1.47,5.43c-1.98,0.56-4.04,1.04-6.18,1.45c7.08-23.85,18.81-70.99,28.5-146.76c1.66-0.65,3.33-1.32,4.95-1.97
	L581,220l27-5l57-108l5.26-8.27C671.83,97.05,671,96,671,96c0-16-143-8-143-8c-204.27,0-194.31,14.05-192.24,15.82l8.94,11.08l0,0
	L404,216c0,0-7,11,119,8c0,0,23-87,16-103c0,0-165.59,4.99-195.88-8.95l-6.52-7.7l0,0C369.16,122.91,543,116,543,116l9,6
	c49,17,47-8,47-8c48.52-4.85,64.67-10.44,69.86-14.09c-1.24,2.06-3.3,5.34-5.11,7.67C654.48,110.92,604,118,604,118
	c-1.64,4.09-5.28,8.18-6.55,9.53c-5.21,2.69-9.03,3.63-9.03,3.63s-2.31,0.53-4.67,1.24c-8.68,1.46-23.38,1.15-40.06-10.91
	c2.23,2.87,7.71,22.61-17.78,158.1c-3.25-0.17-6.33-0.39-9.17-0.64c1.21-15.98,3.62-33.03,5.07-42.5c0.59-3.87-2.45-7.34-6.37-7.25
	c-23.37,0.54-93.92,1.54-111.46-5.67c-3.42-1.4-7.35,0.48-8.44,4.01c-1.1,3.57-1.1,8.01,2.46,12.45c8,10,25.89,41.34,25,60
	c0,0,0,20-4,32c-3.5,10.5-16.19,28.65-19.3,33.03c-0.51,0.72-0.87,1.54-1.04,2.41c-0.81,4.06-1.92,15.66,10.35,20.56
	c12.89,5.15,90.71,5.14,112.4,5.04c3.44-0.02,6.25-2.79,6.26-6.23c0.03-6.38-1.11-18.62-6.66-40.8c-1.81-7.24-3.01-18.17-3.77-27.97
	c2.24,0.38,4.46,0.69,6.65,0.94c0.79,8.84,2.28,19.99,5.12,28.03c0,0,2.59,7.78,5.13,20.92c0.03,0.14,0.05,0.28,0.06,0.42
	c0.14,1.44,0.98,10.22,1.84,19.35c0.46,4.9-3.27,9.19-8.19,9.4c-30.51,1.27-68.63,0.84-112.66-3.76c-1.89-0.2-3.7,0.82-4.5,2.55
	l-56.61,122.97c-0.04,0.09-0.08,0.19-0.12,0.28c-1.42,3.76-29.12,78.91,11.42,120.24c0.95,0.97,1.34,2.35,1.16,3.69
	c-1.24,9.21,3.35,45.39,156.3,34.93c0.11-0.01,0.23-0.01,0.34-0.01c5.08,0.06,126.84,1.07,137.58-40.87
	c0.18-0.71,0.5-1.38,0.99-1.93C667.51,628.67,704.75,582.15,665.06,509.11z M557.59,305.89c-0.01-3.15-2.67-5.62-5.8-5.36
	c-6.77,0.58-17.48,1.5-23.75,2.04c-2.87,0.25-5.02,2.7-4.89,5.57c0.1,2.06,0.26,4.93,0.52,8.26c-2.32-0.15-4.53-0.32-6.6-0.5
	C516.27,304.99,516,296,516,296c0-4.6,0.22-9.68,0.58-14.91c2.98,0.5,5.93,0.87,8.83,1.13c-0.59,3.12-1.19,6.27-1.81,9.51
	c-0.8,4.14,2.58,7.9,6.79,7.54l19.68-1.69c4.31-0.37,7.99-3.25,9.38-7.35c0.86-2.54,1.93-5.82,3.16-9.87
	c2.23-0.41,4.32-0.84,6.24-1.28c-4.13,16.42-5.28,27.59-4.99,35.88c-1.84,0.34-3.73,0.63-5.65,0.87
	C557.84,312.33,557.6,308.9,557.59,305.89z"/>
<g>
</g>
<g>
</g>
<g>
</g>
<g>
</g>
<g>
</g>
<g>
</g>
<g>
</g>
<g>
</g>
<g>
</g>
<g>
</g>
<g>
</g>
<g>
</g>
<g>
</g>
<g>
</g>
<g>
</g>
</svg>
