<?xml version="1.0" encoding="utf-8"?>
<!-- Generator: Adobe Illustrator 23.0.2, SVG Export Plug-In . SVG Version: 6.00 Build 0)  -->
<svg version="1.1" id="coldbrew" xmlns="http://www.w3.org/2000/svg" xmlns:xlink="http://www.w3.org/1999/xlink" x="0px" y="0px"
	 viewBox="0 0 1024 768" enable-background="new 0 0 1024 768" xml:space="preserve">
<path d="M696.73,118.7c-34.86-4.39-115.08-7.95-130.23-8.6c-1.39-0.06-2.49-1.21-2.49-2.6V89.58c0-1.06-0.64-2.02-1.62-2.42
	c-3.27-1.33-15.18-5.59-37.88-5.22c-22.7-0.37-34.6,3.89-37.88,5.22c-0.98,0.4-1.62,1.35-1.62,2.42v17.92c0,1.4-1.1,2.54-2.49,2.6
	c-15.15,0.65-95.38,4.21-130.23,8.6c-1.3,0.16-2.27,1.27-2.27,2.59v0.09c0,1.46,1.17,2.62,2.61,2.62H524v3H363v131
	c0,0-0.97,21.51,34,33.77V318l0.07-0.02c-0.05,0.4-0.07,0.8-0.07,1.21v100.13c0,3.48-1.71,6.72-4.56,8.72
	c-24.98,17.54-28.79,34.99-29.35,39.07c-0.06,0.47-0.09,0.94-0.09,1.41V599.6c0,3.37,1.57,6.58,4.31,8.55
	c25.23,18.17,145.49,20.63,157.69,20.84l0,0.02c0,0,0.18,0,0.5-0.01C525.82,629,526,629,526,629l0-0.02
	c12.2-0.2,132.46-2.67,157.69-20.84c2.74-1.97,4.31-5.18,4.31-8.55V468.52c0-0.47-0.03-0.94-0.09-1.41
	c-0.56-4.07-4.36-21.53-29.35-39.07c-2.85-2-4.56-5.24-4.56-8.72V319.19c0-0.07-0.01-0.13-0.01-0.2l0.01,0v-24.98
	c16.44-5.63,29.63-15.82,30-34.02c1-49,0-133,0-133H526v-3h170.39c1.44,0,2.61-1.17,2.61-2.62v-0.09
	C699,119.98,698.03,118.87,696.73,118.7z M670,599.27c0,0.96-4.07,1.88-11.43,2.71c-22.09-5.33-73.88-12.71-134.57-12.71
	c-60.74,0-113.12,7.4-135.47,12.73c-7.43-0.84-11.53-1.76-11.53-2.73c0-3.87,66.09-17,147-17S670,595.41,670,599.27z M619.96,440.73
	c0.12,0.02,0.24,0.04,0.36,0.06c5.05,0.87,8.68,5.33,8.68,10.45v14.51c0,4.74-3.13,8.88-7.68,10.21c-10.22,2.99-34.01,6.65-89.32,7
	V480c58.66,0,92-8,92-8v-24v-1l-15.16-1.17l0,0c-76.83-10.33-153.73-2.04-173.8,0.49l0,0C426.08,446.65,426,449,426,449v23
	c40.54,5.93,75.86,7.95,105,8v2.98c-1.64,0.01-3.3,0.02-5,0.02V483c-0.51,0-1,0-1.5,0c-0.5,0-0.99,0-1.5,0v-0.01
	c-59.62-0.12-84.74-3.93-95.32-7.03c-4.55-1.33-7.68-5.48-7.68-10.21v-14.51c0-5.12,3.64-9.58,8.68-10.45
	c0.12-0.02,0.24-0.04,0.36-0.06c5.16-0.84,8.96-5.27,8.96-10.49v-71.61c0-5.87,4.76-10.63,10.63-10.63H524h1h75.37
	c5.87,0,10.63,4.76,10.63,10.63v71.61C611,435.47,614.8,439.89,619.96,440.73z M431.86,447.2c105.43,11.33,170.39,2.23,182.91,0.19
	l6.78,0.45c-40.93,12.84-176.7,2.58-193.77,1.29C428.16,448.01,429.95,447.46,431.86,447.2z M649.69,295.37
	c-4.29,6.23-12.84,12.6-29.89,13.31c-17.68-0.29-37.16-1.13-45.11-1.5c-2.48-0.12-4.91,0.64-6.89,2.14
	c-3.57,2.69-9.77,7.67-16.79,14.69c-9.08,9.08-20.21,9.98-25.5,10.02c-5.29-0.04-16.42-0.94-25.5-10.02
	c-7.02-7.02-13.22-12-16.79-14.69c-1.98-1.49-4.41-2.25-6.89-2.14c-7.12,0.33-23.48,1.05-39.52,1.4c0,0-30.07,1.19-36.43-15.69
	c14.86,4.65,35.62,7.67,64.64,7.12c104-2,124,0,124,0S622.48,303.2,649.69,295.37z M565.25,140c0.97,0,1.75,0.78,1.75,1.75v5.5
	c0,0.97-0.78,1.75-1.75,1.75h-21.5c-0.97,0-1.75,0.78-1.75,1.75V182c0,2.01-3.22,1.78-5,2c-0.87,0.11-1,1.75-1,2.63v84.5
	c0,1,0.85,1.79,1.85,1.75c6.9-0.31,9.16,1.58,9.85,2.56c0.2,0.28,0.3,0.63,0.3,0.98v11.65c0,0.62-0.33,1.2-0.86,1.51
	c-3.39,2.03-7.17,1.58-7.98,1.45c-0.12-0.02-0.23-0.02-0.35-0.02c-1.15,0.07-7.3,0.41-13.81,0.43c-6.51-0.02-12.66-0.36-13.81-0.43
	c-0.12-0.01-0.23,0-0.35,0.02c-0.81,0.13-4.59,0.58-7.98-1.45c-0.53-0.32-0.86-0.89-0.86-1.51v-11.65c0-0.35,0.09-0.69,0.3-0.98
	c0.7-0.98,2.95-2.87,9.85-2.56c1,0.04,1.85-0.74,1.85-1.75v-84.5c0-0.88-0.13-2.52-1-2.63c-1.78-0.22-5,0.01-5-2l1-31.25
	c0-0.97-1.78-1.75-2.75-1.75h-21.5c-0.97,0-1.75-0.78-1.75-1.75v-5.5c0-0.97,0.78-1.75,1.75-1.75H525H565.25z"/>
<g>
</g>
<g>
</g>
<g>
</g>
<g>
</g>
<g>
</g>
<g>
</g>
<g>
</g>
<g>
</g>
<g>
</g>
<g>
</g>
<g>
</g>
<g>
</g>
<g>
</g>
<g>
</g>
<g>
</g>
</svg>
