<?xml version="1.0" encoding="utf-8"?>
<!-- Generator: Adobe Illustrator 23.0.2, SVG Export Plug-In . SVG Version: 6.00 Build 0)  -->
<svg version="1.1" id="espresso" xmlns="http://www.w3.org/2000/svg" xmlns:xlink="http://www.w3.org/1999/xlink" x="0px" y="0px"
	 viewBox="0 0 1024 768" enable-background="new 0 0 1024 768" xml:space="preserve">
<path d="M865.94,464.97L865.94,464.97c0.1-10.13-4.91-21.68-20.94-32.97c0,0-21-15-37-19l1-3c0,0-14.23-3.56-32.76-5.15
	c31.03-0.64,49.19-3.17,58.96-5.19c5.71-1.18,9.79-6.21,9.79-12.04V358c0,0-21,11-84,11c-0.68,0-1.33-0.01-2-0.01V366
	c0.33,0,0.67,0,1,0c61,0,82-10,82-10l-37-21c0,0-18,5-46,5v-2.26c26.39,0.59,41-4.37,42.86-5.5c0.38-0.08,0.75-0.15,1.14-0.23
	l-4.93-13.14c-0.71-1.9-1.02-3.92-0.92-5.94c0.8-15.47,4.75-84.39,11.85-95.92c5.59-9.08,14.6-20.12,19.52-25.95
	c2.25-2.66,3.48-6.03,3.48-9.51v-27.76c0-2.68-0.71-5.32-2.11-7.6c-3.77-6.14-14.02-16.5-41.19-20.99h0
	c-15.68-4.28-39.89-2.51-51.59-1.28c-2.29,0.22-4.47,0.49-6.56,0.78c-0.14,0.02-0.24,0.03-0.24,0.03
	c-29.23,4.17-40.14,14.94-44.12,21.33c-1.45,2.32-2.19,5-2.19,7.74v27.76c0,3.48,1.23,6.85,3.48,9.51
	c4.92,5.83,13.93,16.86,19.52,25.95c7.09,11.53,11.04,80.45,11.85,95.92c0.11,2.02-0.21,4.04-0.92,5.94L713,332
	c0.38,0.08,0.75,0.15,1.14,0.23c1.86,1.14,16.48,6.1,42.86,5.5v2.25c-27.04-0.23-48-4.99-48-4.99l-39,21c0,0,40.23,9.59,87,9.99
	v2.99c-60.26-0.45-89-10.98-89-10.98v28.63c0,6.23,4.45,11.56,10.58,12.65c11.46,2.04,32.66,4.81,65.67,5.54
	c-4.51,0.46-8.96,1.17-13.26,2.18l1,3c0,0-53,2-78,44c0,0-3.3,6.62-2.01,15.98V484h0.08c0.53,14.54,3.93,12,3.93,12
	s2.81-4.41,5.63-3.83c-3.54-3.67-6.06-6.92-7.63-9.13v-5.46c5.73,14.52,24.09,32.41,76,43.42c0,0,6,1.31,15.93,2.01l-1.57,2.91
	c-12.13-0.78-25.23-3.01-37.36-7.93l-4,6c0,0,12.76,6.82,39.17,8.5l0.23,1.19C713.36,532.4,703,525,703,525l3,13
	c14.13,4.61,27.17,6.64,38.61,7.2l0.34,1.75C722.08,545.38,704,539,704,539l-4-15l5-7c-18.63-4.53-31.94-13.88-40.56-22.05
	c0.58,1.2,1.11,2.84,1.56,5.05c2.58,12.89,0.73,41.26,0.15,49h-11.06c-2.48-5.92-8.83-24.6-3.09-50l-59-3c0,0-6.25,7.1-7.45,22.36
	l-2.04-0.1c0.53-8.29,2.32-16.89,6.49-24.27l-7-11c0,0-9.51,2.8-9.7,34.78l-3.13-0.15c0.46-14.16,2.95-28.45,9.83-37.63l-71,13
	c0,0-5.85,7.95-6.2,21.41l-6.44-0.31c-0.24-8.22,1.28-16.68,6.63-23.1l-134-34c0,0-16.49,16.5-17.72,50.16l-5.58-0.27
	C346.8,472.72,363,457,363,457l-154,21c-19,20-6,44-6,44l152,39c-7.14-20.57-9.55-37.87-9.34-52.1l5.57,0.27
	c-0.26,14.29,2.23,31.55,9.77,51.84l142-18c0,0-5.65-12.83-6.54-26.89l6.33,0.3c0.1,6.96,1.7,15.25,6.21,24.59l65,22
	c0,0-4.31-21.21-3.89-43.37l3.19,0.15c0.06,10.49,1.1,23.95,3.7,41.22l10-9c0,0-4.27-14.96-3.6-31.74l2.03,0.1
	c-0.38,8.07,0.65,18.23,4.57,30.64c0,0,53,4,66,0h10c38,30,86,32,86,32c83,1,99-33,99-33l15-70L865.94,464.97z M770.42,413.35
	c13.61,1.08,36.59,4.87,59.58,17.65c0,0,32,17,17,38c0,0-3.73-31.16-57-43c-6.99-1.55-13.37-2.5-19.91-2.96L770.42,413.35z
	 M769.93,427.51C776.86,428.13,781,429,781,429c65,13,64,42,64,42c-3-26-64-38-64-38s-4.27-0.66-11.22-1.11L769.93,427.51z M810,445
	c0,0,33,11,34,28l-2,2c0,0-7.08-28.25-72.66-30.52l0.21-5.99C782.01,439.09,796.62,440.82,810,445z M758,413
	c0,0,4.31-0.24,11.43,0.28l-0.34,9.7c-10.01-0.63-20.47-0.16-34.09,1.02c0,0-52,3-64,40C671,464,664,414,758,413z M704,436
	c25.54-9.82,50.64-9.78,64.93-8.58l-0.15,4.42c-10.21-0.61-25.66-0.71-41.78,2.17c-37.46,6.69-56,32-56,32S672.69,448.04,704,436z
	 M672,468c8-11,23-25,67-29c0,0,12.7-1.3,29.55-0.56l-0.21,6c-8.18-0.25-17.26-0.09-27.34,0.56c0,0-45-1-67,27L672,468z M675,475
	c0,0,15-25,55-27c0,0,97-11,110,29c0,0-20,26-81,25C759,502,690,501,675,475z M864.42,482.96C846.51,513.6,792,523,792,523v8l2,9
	c-15.43,6.73-32.74,7.97-48.03,7.02l-0.34-1.78C773.28,546.4,791.3,539,792,539l-2-8c-19.11,2.61-34.43,3.2-46.58,2.73l-0.22-1.16
	c12.56,0.72,28.12,0.28,46.8-2.57v-7c0,0-20.17,4.38-44.54,2.99l1.56-2.9c22.78,1.46,64.74-0.45,102.98-27.09
	c0,0,10.26-8.68,14.31-21.32C864.48,477.13,864.55,479.93,864.42,482.96z"/>
<g>
</g>
<g>
</g>
<g>
</g>
<g>
</g>
<g>
</g>
<g>
</g>
<g>
</g>
<g>
</g>
<g>
</g>
<g>
</g>
<g>
</g>
<g>
</g>
<g>
</g>
<g>
</g>
<g>
</g>
</svg>
