<?xml version="1.0" encoding="utf-8"?>
<!-- Generator: Adobe Illustrator 23.0.2, SVG Export Plug-In . SVG Version: 6.00 Build 0)  -->
<svg version="1.1" id="kalita" xmlns="http://www.w3.org/2000/svg" xmlns:xlink="http://www.w3.org/1999/xlink" x="0px" y="0px"
	 viewBox="0 0 1024 768" enable-background="new 0 0 1024 768" xml:space="preserve">
<path d="M614.47,441.6c0.92-2.75,3.48-4.6,6.38-4.6c2.55,0,4.87-1.44,6.01-3.72l14.22-28.44c1.15-2.3,3.52-3.75,6.09-3.72
	C671.63,401.46,795.11,397.56,787,284c0,0,0-26.81-53.42-35.9c-0.38-0.06-0.77-0.1-1.16-0.1h-44.09c-4.59,0-7.83-4.5-6.38-8.85
	l5.33-15.99c0.63-1.89,0.41-3.97-0.65-5.65C680.8,208.25,650.24,183.28,490,176c0,0-155.71,0-206.45,36.21
	c-6.02,4.3-8.45,12.08-6.11,19.1l72.74,218.23c1.19,3.58-0.8,7.43-4.4,8.55c-22.1,6.82-39.54,17.2-44.78,32.92c-18,54,189,54,189,54
	s171,0,171-45c0-19.28-18.17-31.94-45.31-40.13c-3.63-1.1-5.66-4.96-4.46-8.56L614.47,441.6z M685.47,277.82
	c0.95-2.37,3.16-4,5.71-4.2c17.42-1.37,83.16-4.21,78.82,31.38c-4.78,39.21-58.96,73.85-125.8,72.42c-4.57-0.1-7.69-4.67-6.16-8.98
	l21.36-59.98c0.95-2.68,3.49-4.47,6.33-4.47h4.71c2.75,0,5.22-1.67,6.24-4.23L685.47,277.82z M297.07,217.5
	c9.14-10.41,45.39-31.78,188.93-29.5c161.59,2.56,186.49,26.33,190.31,33.17c-0.4,0.13-0.78,0.32-1.11,0.6
	c-1.74,1.45-17.72,8.79-29.73,12.32c-0.02,0.01-0.04-0.01-0.03-0.03l4.57-10.04c0-0.01,0.01-0.01,0-0.01c-0.06-0.15-2.06-4.93-6-1
	c0,0,0,0-0.01,0.01l-6.08,13.07c0,0.01-0.01,0.01-0.02,0.01c-3.36,0.81-7.1,1.6-11.3,2.38c-0.02,0-0.03-0.01-0.03-0.03L633,221
	c0,0,0,0,0,0c0-0.07-0.04-6.97-6.99-1c0,0-0.01,0.01-0.01,0.01l-7.31,19.78c0,0.01-0.01,0.01-0.02,0.02
	c-3.77,0.58-7.83,1.14-12.21,1.67c-0.02,0-0.03-0.01-0.03-0.03L614,214c0,0,0-0.01,0-0.01c-1-7.95-7.92-1.07-8-1c0,0,0,0,0,0.01
	l-9.27,29.52c0,0.01-0.01,0.02-0.02,0.02c-3.95,0.39-8.12,0.75-12.52,1.07c-0.01,0-0.03-0.01-0.03-0.03l3.84-34.58
	c0,0,0-0.01,0-0.01c-3.97-8.92-10.89-1.12-11-1c0,0,0,0,0,0.01l-3.82,36.31c0,0.01-0.01,0.02-0.02,0.02
	c-5,0.28-10.27,0.53-15.82,0.73c-0.01,0-0.03-0.01-0.02-0.02l1.68-39.03c0,0,0-0.01,0-0.01c-3.97-8.92-10.89-1.12-11-1
	c0,0,0,0,0,0.01l-3.59,40.4c0,0.01-0.01,0.02-0.02,0.02c-3.92,0.08-7.96,0.14-12.13,0.18c-0.01,0-0.02-0.01-0.02-0.02l0.76-41.58
	c0-0.01,0-0.01,0-0.01c-6.96-9.94-11.94-0.09-11.99,0.01c0,0,0,0,0,0.01l-1.71,41.63c0,0.01-0.01,0.02-0.02,0.02
	c-3.59-0.01-7.25-0.03-11.02-0.08c-0.01,0-0.02-0.01-0.02-0.02L508,204.01c0,0,0-0.01,0-0.01c-6.96-9.94-11.94-0.1-12,0.01
	c0,0,0,0,0,0.01l-0.71,41.34c0,0.01-0.01,0.02-0.02,0.02c-3.6-0.08-7.29-0.17-11.04-0.28c-0.01,0-0.02-0.01-0.02-0.02l-1.2-41.06
	c0,0,0-0.01,0-0.01c-6.95-9.92-12.92-0.12-12.99,0c0,0,0,0,0,0.01l1.25,41.11c0,0.01-0.01,0.02-0.02,0.02
	c-4.25,0.02-9.74,0.01-16.2-0.09c-0.01,0-0.02-0.01-0.02-0.02v-41.02c0,0,0-0.01,0-0.01c-4.96-8.91-13.84-0.15-13.99,0
	c0,0,0,0.01,0,0.01l1.83,40.73c0,0.01-0.01,0.02-0.02,0.02c-3.89-0.12-8-0.27-12.29-0.46c-0.01,0-0.02-0.01-0.02-0.02L429,205.01
	c0,0,0-0.01,0-0.01c-3.96-7.91-10.86-0.16-11,0c0,0,0,0.01,0,0.01l2.56,38.76c0,0.01-0.01,0.03-0.02,0.03
	c-3.24-0.18-6.56-0.39-9.93-0.63c-0.01,0-0.02-0.01-0.02-0.02L408,207.01c0-0.01,0-0.01-0.01-0.01c-6.95-7.94-10.94,1.78-10.99,1.9
	c0,0,0,0,0,0.01l4.67,33.56c0,0.01-0.01,0.03-0.03,0.03c-3.09-0.25-6.22-0.53-9.38-0.83c-0.01,0-0.02-0.01-0.02-0.02L388,208.01
	c0,0,0-0.01-0.01-0.01c-6.95-7.94-11.93,2.86-11.99,3c0,0,0,0,0,0.01l4.94,29.43c0,0.02-0.01,0.03-0.03,0.03
	c-3.52-0.4-7.05-0.83-10.59-1.3c-0.01,0-0.02-0.01-0.02-0.02L366,212.01c0,0,0-0.01-0.01-0.01c-7.95-8.94-11.95,1.87-11.99,2
	c0,0,0,0,0,0.01l4.32,23.4c0,0.02-0.01,0.03-0.03,0.03c-3.53-0.55-7.04-1.14-10.54-1.77c-0.01,0-0.02-0.01-0.02-0.02L343,215.01
	c0,0,0-0.01-0.01-0.01c-6.96-6.95-8.97,1.91-8.99,2c0,0,0,0,0,0.01l3.68,16.67c0,0.02-0.01,0.03-0.03,0.03
	c-2.61-0.54-5.2-1.11-7.76-1.7h0l-3.9-12c0,0,0-0.01,0-0.01c-5.96-6.95-7.97,0.91-8,1c0,0,0,0,0,0.01l1.55,8.39
	c0,0.02-0.01,0.03-0.03,0.03c-2.54-0.68-19.09-5.51-24.12-7.01C295.29,220.7,295.82,218.92,297.07,217.5z M392.17,241.65
	c-3.68-0.35-7.39-0.74-11.13-1.17L392.17,241.65z M490,251c-140.74-2.19-180.44-16.07-191.63-23.43c-1.1-0.72-1.9-1.71-2.4-2.81
	c10.93,3.66,37.25,11.32,62.8,15.06l0,0l0.21,0.03c3.65,0.53,7.52,1.06,11.64,1.57l0.05,0.01l0,0c25.96,3.22,61.45,5.89,109.33,6.58
	c122.73,1.75,181.01-12.46,196.59-22.81C673.66,232.21,651.52,253.51,490,251z"/>
<g>
</g>
<g>
</g>
<g>
</g>
<g>
</g>
<g>
</g>
<g>
</g>
<g>
</g>
<g>
</g>
<g>
</g>
<g>
</g>
<g>
</g>
<g>
</g>
<g>
</g>
<g>
</g>
<g>
</g>
</svg>
