<?xml version="1.0" encoding="utf-8"?>
<!-- Generator: Adobe Illustrator 23.0.2, SVG Export Plug-In . SVG Version: 6.00 Build 0)  -->
<svg version="1.1" id="kettle" xmlns="http://www.w3.org/2000/svg" xmlns:xlink="http://www.w3.org/1999/xlink" x="0px" y="0px"
	 viewBox="0 0 1024 768" enable-background="new 0 0 1024 768" xml:space="preserve">
<path d="M903.41,391.19c-4.13-9.63-8.25-27.51-35.76-34.39s-20.63-28.88-33.01-41.26c-12.38-12.38-34.39-12.38-46.77-28.88
	c-12.38-16.51-15.13-35.76-39.89-39.89c-24.76-4.13-24.76-15.13-83.9,16.51l4.13,6.88l-28.88,15.13c0,0,22.01,15.13,17.88,46.77
	l5.21,5.96h-4.64c-2.77-2.99-4.7-4.58-4.7-4.58c1.38-37.14-23.38-46.77-23.38-46.77H516v-4.13h120.56l-8.6-13.38
	c-2.36-3.66-6.41-5.88-10.77-5.88H516v-2.75h20.16v-9.63c0,0,34.39-9.63,34.39-34.39h-56.39h-56.39c0,24.76,34.39,34.39,34.39,34.39
	v9.63H514v2.75H413.48c-4.18,0-8.13,1.92-10.71,5.21l-11.04,14.05H514v4.13H398.61c0,0-24.76,9.63-23.38,46.77
	c0,0-31.64,26.13-23.38,66.02c0,0-28.88,27.51-20.63,60.52c0,0-6.37,8.66-10.99,22.04h-4.14l0.01-0.03
	c0,0-125.17,4.13-118.29-114.16c0,0,9.63-79.78-85.28-112.79L85,263.27c0,0,93.53,22.01,89.41,105.91c0,0-5.25,118.55,128.63,130.05
	c0.04,0.02,0.07,0.03,0.07,0.03l0.8,0.05c2.64,0.22,5.31,0.41,8.06,0.54l0-0.02l4.06,0.26c-0.65,5.57-0.74,11.5,0.07,17.64
	c0,0,0.25,0.28,0.92,0.77v5.53l-5.05,8.83c0,0,106.99,17.25,210.5,14.94c44.88,0.44,89.5-3.03,123.56-6.17
	c42.81-3.95,71.7-8.77,71.7-8.77l-5.5-9.63c-0.06,0.08-0.15,0.15-0.22,0.22v-5.52c0.15-0.14,0.22-0.21,0.22-0.21
	c4.13-31.64-15.13-57.77-15.13-57.77c8.25-33.01-20.63-60.52-20.63-60.52c5.28-25.53-5.78-45.43-14.42-56.44h4.75l0.04,0.05
	c1.38,0,12.38,0,12.38,0s-9.63-41.26-22.01-50.89l16.51-11l6.88,9.63c0,0,6.88,2.75,9.63,0c2.75-2.75,26.13-17.88,26.13-17.88
	s12.38-6.88,22.01,1.38c9.63,8.25,4.13,16.51,24.76,35.76c20.63,19.26,28.88,16.51,37.14,24.76c8.25,8.25,9.63,26.13,20.63,33.01
	c11,6.88,23.38,8.25,33.01,19.26c9.63,11,5.5,16.51,9.63,23.38s20.63,12.38,30.26,6.88C903.41,411.82,907.53,400.82,903.41,391.19z
	 M316.13,499.21c-1.33-0.09-2.67-0.18-3.96-0.28l3.68-15.93h4.04C318.25,487.87,316.88,493.33,316.13,499.21z M710,519.35v5.64
	c-17.74,10.5-108.43,12.97-168.27,13.43l-0.07-0.06c0,0-10.47,0.14-26.86,0.15c-10.9-0.01-19.18-0.07-23.48-0.11
	c-0.16,0-0.32,0.02-0.47,0.04c-60.55-0.41-155.62-2.85-171.85-13.88v-4.8c9.91,5.53,50.24,20.1,195.15,14.48
	C662.77,540,701.38,524.53,710,519.35z"/>
<g>
</g>
<g>
</g>
<g>
</g>
<g>
</g>
<g>
</g>
<g>
</g>
<g>
</g>
<g>
</g>
<g>
</g>
<g>
</g>
<g>
</g>
<g>
</g>
<g>
</g>
<g>
</g>
<g>
</g>
</svg>
